# xmcd
#
# Track frame offsets: 
#        150
#        62110
#        117384
#        166142
#
# Disc length: 3067 seconds
#
# Revision: 4
# Processed by: cddbd v1.5.2PL0 Copyright (c) Steve Scherf et al.
# Submitted via: ExactAudioCopy v1.0b3
#
DISCID=2f0bf904
DTITLE=Various Artist - Lien Khuc Tinh
DYEAR=2000
DGENRE=Dance
TTITLE0=Lien Khuc 1 - Tinh Don Phuong, Tinh Mong Mo
TTITLE1=Lien Khuc 2 - Yeu Nhau Ghet Nhau, Trong Vang
TTITLE2=Lien Khuc 3 - Xin Mua Ngung Roi, Kiep Ve Sau
TTITLE3=Lien Khuc 4 - Mua Phi Truong, Con Gai Bay Gio
EXTD=ID3G:   0
EXTT0=
EXTT1=
EXTT2=
EXTT3=
PLAYORDER=
